<svg width="24" height="24" viewBox="0 0 24 24" fill="none" xmlns="http://www.w3.org/2000/svg">
<g clip-path="url(#clip0_2686_22983)">
<rect width="24" height="24" rx="12" fill="#059669"/>
<path d="M7.77731 16V8.836H5.32931V7.6H11.7733V8.836H9.31331V16H7.77731ZM15.4103 16.144C14.8583 16.144 14.3583 16.048 13.9103 15.856C13.4623 15.656 13.1023 15.352 12.8303 14.944C12.5583 14.536 12.4143 14.024 12.3983 13.408H13.9103C13.9183 13.816 14.0503 14.16 14.3063 14.44C14.5703 14.712 14.9383 14.848 15.4103 14.848C15.8583 14.848 16.2023 14.724 16.4423 14.476C16.6823 14.228 16.8023 13.916 16.8023 13.54C16.8023 13.1 16.6423 12.768 16.3223 12.544C16.0103 12.312 15.6063 12.196 15.1103 12.196H14.4863V10.936H15.1223C15.5303 10.936 15.8703 10.84 16.1423 10.648C16.4143 10.456 16.5503 10.172 16.5503 9.796C16.5503 9.484 16.4463 9.236 16.2383 9.052C16.0383 8.86 15.7583 8.764 15.3983 8.764C15.0063 8.764 14.6983 8.88 14.4743 9.112C14.2583 9.344 14.1383 9.628 14.1143 9.964H12.6143C12.6463 9.188 12.9143 8.576 13.4183 8.128C13.9303 7.68 14.5903 7.456 15.3983 7.456C15.9743 7.456 16.4583 7.56 16.8503 7.768C17.2503 7.968 17.5503 8.236 17.7503 8.572C17.9583 8.908 18.0623 9.28 18.0623 9.688C18.0623 10.16 17.9303 10.56 17.6663 10.888C17.4103 11.208 17.0903 11.424 16.7063 11.536C17.1783 11.632 17.5623 11.864 17.8583 12.232C18.1543 12.592 18.3023 13.048 18.3023 13.6C18.3023 14.064 18.1903 14.488 17.9663 14.872C17.7423 15.256 17.4143 15.564 16.9823 15.796C16.5583 16.028 16.0343 16.144 15.4103 16.144Z" fill="white"/>
</g>
<defs>
<clipPath id="clip0_2686_22983">
<rect width="24" height="24" rx="12" fill="white"/>
</clipPath>
</defs>
</svg>
