<svg width="16" height="16" viewBox="0 0 16 16" fill="none" xmlns="http://www.w3.org/2000/svg">
<g clip-path="url(#clip0_2817_27834)">
<path d="M1.71429 2.85718C1.41118 2.85718 1.12049 2.97759 0.906165 3.19191C0.691838 3.40624 0.57143 3.69693 0.57143 4.00003V14.2857C0.57143 14.5889 0.691838 14.8795 0.906165 15.0939C1.12049 15.3082 1.41118 15.4286 1.71429 15.4286H14.2857C14.5888 15.4286 14.8795 15.3082 15.0938 15.0939C15.3082 14.8795 15.4286 14.5889 15.4286 14.2857V4.00003C15.4286 3.69693 15.3082 3.40624 15.0938 3.19191C14.8795 2.97759 14.5888 2.85718 14.2857 2.85718H12" stroke="#000001" stroke-linecap="round" stroke-linejoin="round"/>
<path d="M4 0.571533V5.14296" stroke="#000001" stroke-linecap="round" stroke-linejoin="round"/>
<path d="M12 0.571533V5.14296" stroke="#000001" stroke-linecap="round" stroke-linejoin="round"/>
<path d="M4 2.85718H9.71429" stroke="#000001" stroke-linecap="round" stroke-linejoin="round"/>
<path d="M4 9.14286C4.31559 9.14286 4.57143 8.88702 4.57143 8.57143C4.57143 8.25584 4.31559 8 4 8C3.68441 8 3.42857 8.25584 3.42857 8.57143C3.42857 8.88702 3.68441 9.14286 4 9.14286Z" stroke="#000001" stroke-linecap="round" stroke-linejoin="round"/>
<path d="M8 9.14286C8.31559 9.14286 8.57143 8.88702 8.57143 8.57143C8.57143 8.25584 8.31559 8 8 8C7.68441 8 7.42857 8.25584 7.42857 8.57143C7.42857 8.88702 7.68441 9.14286 8 9.14286Z" stroke="#000001" stroke-linecap="round" stroke-linejoin="round"/>
<path d="M12 9.14286C12.3156 9.14286 12.5714 8.88702 12.5714 8.57143C12.5714 8.25584 12.3156 8 12 8C11.6844 8 11.4286 8.25584 11.4286 8.57143C11.4286 8.88702 11.6844 9.14286 12 9.14286Z" stroke="#000001" stroke-linecap="round" stroke-linejoin="round"/>
<path d="M4 12.5716C4.31559 12.5716 4.57143 12.3157 4.57143 12.0001C4.57143 11.6845 4.31559 11.4287 4 11.4287C3.68441 11.4287 3.42857 11.6845 3.42857 12.0001C3.42857 12.3157 3.68441 12.5716 4 12.5716Z" stroke="#000001" stroke-linecap="round" stroke-linejoin="round"/>
</g>
<defs>
<clipPath id="clip0_2817_27834">
<rect width="16" height="16" fill="white"/>
</clipPath>
</defs>
</svg>
