<svg width="16" height="16" viewBox="0 0 16 16" fill="none" xmlns="http://www.w3.org/2000/svg">
<g clip-path="url(#clip0_2817_27859)">
<path d="M3.85143 6.6858L6.75428 2.04579C6.86678 1.8624 7.02486 1.71127 7.21313 1.60712C7.4014 1.50297 7.61343 1.44936 7.82857 1.45151V1.45151C7.99801 1.44539 8.16696 1.47331 8.32542 1.5336C8.48389 1.59389 8.62867 1.68534 8.75119 1.80253C8.87372 1.91973 8.9715 2.0603 9.03878 2.21593C9.10605 2.37157 9.14144 2.53911 9.14285 2.70865V6.03437H14.16C14.3454 6.04038 14.5274 6.08556 14.6941 6.16695C14.8608 6.24834 15.0083 6.36408 15.1271 6.50658C15.2458 6.64907 15.333 6.81508 15.383 6.9937C15.433 7.17233 15.4447 7.35951 15.4171 7.54294L14.5029 13.4401C14.4639 13.7552 14.3111 14.0453 14.0733 14.2558C13.8355 14.4662 13.529 14.5826 13.2114 14.5829H5.71428C5.35739 14.5843 5.00513 14.5021 4.68571 14.3429L3.86285 13.9315" stroke="#000001" stroke-linecap="round" stroke-linejoin="round"/>
<path d="M3.85143 6.68579V13.8972" stroke="#000001" stroke-linecap="round" stroke-linejoin="round"/>
<path d="M1.14285 6.68579H3.85143V13.8972H1.14285C0.991303 13.8972 0.845958 13.837 0.738794 13.7299C0.63163 13.6227 0.571426 13.4773 0.571426 13.3258V7.25722C0.571426 7.10567 0.63163 6.96032 0.738794 6.85316C0.845958 6.746 0.991303 6.68579 1.14285 6.68579V6.68579Z" stroke="#000001" stroke-linecap="round" stroke-linejoin="round"/>
</g>
<defs>
<clipPath id="clip0_2817_27859">
<rect width="16" height="16" fill="white"/>
</clipPath>
</defs>
</svg>
