<svg width="24" height="24" viewBox="0 0 24 24" fill="none" xmlns="http://www.w3.org/2000/svg">
<g clip-path="url(#clip0_2686_22974)">
<rect width="24" height="24" rx="12" fill="#DB2777"/>
<path d="M7.91208 16V8.836H5.46408V7.6H11.9081V8.836H9.44808V16H7.91208ZM12.6165 16V14.884C13.1285 14.46 13.6245 14.04 14.1045 13.624C14.5925 13.208 15.0245 12.796 15.4005 12.388C15.7845 11.98 16.0885 11.584 16.3125 11.2C16.5445 10.808 16.6605 10.428 16.6605 10.06C16.6605 9.716 16.5645 9.412 16.3725 9.148C16.1885 8.884 15.8805 8.752 15.4485 8.752C15.0085 8.752 14.6765 8.896 14.4525 9.184C14.2285 9.472 14.1165 9.82 14.1165 10.228H12.6285C12.6445 9.612 12.7805 9.1 13.0365 8.692C13.2925 8.276 13.6325 7.968 14.0565 7.768C14.4805 7.56 14.9565 7.456 15.4845 7.456C16.3405 7.456 17.0045 7.692 17.4765 8.164C17.9565 8.628 18.1965 9.232 18.1965 9.976C18.1965 10.44 18.0885 10.892 17.8725 11.332C17.6645 11.772 17.3885 12.196 17.0445 12.604C16.7005 13.012 16.3285 13.396 15.9285 13.756C15.5285 14.108 15.1405 14.436 14.7645 14.74H18.4005V16H12.6165Z" fill="white"/>
</g>
<defs>
<clipPath id="clip0_2686_22974">
<rect width="24" height="24" rx="12" fill="white"/>
</clipPath>
</defs>
</svg>
