<svg width="46" height="44" viewBox="0 0 46 44" fill="none" xmlns="http://www.w3.org/2000/svg">
<g filter="url(#filter0_dd_1577_18611)">
<rect x="12" y="2" width="22" height="20" rx="4" fill="#C79D4E" shape-rendering="crispEdges"/>
<path d="M19.5596 17.168C18.5703 17.168 17.7209 16.958 17.0116 16.538C16.3023 16.1087 15.7563 15.516 15.3736 14.76C14.9909 13.9947 14.7996 13.1127 14.7996 12.114C14.7996 11.1153 14.9909 10.2333 15.3736 9.468C15.7563 8.70267 16.3023 8.10533 17.0116 7.676C17.7209 7.24667 18.5703 7.032 19.5596 7.032C20.7356 7.032 21.6969 7.326 22.4436 7.914C23.1996 8.49267 23.6709 9.30933 23.8576 10.364H21.8836C21.7623 9.832 21.5009 9.41667 21.0996 9.118C20.7076 8.81 20.1849 8.656 19.5316 8.656C18.6263 8.656 17.9169 8.964 17.4036 9.58C16.8903 10.196 16.6336 11.0407 16.6336 12.114C16.6336 13.1873 16.8903 14.032 17.4036 14.648C17.9169 15.2547 18.6263 15.558 19.5316 15.558C20.1849 15.558 20.7076 15.418 21.0996 15.138C21.5009 14.8487 21.7623 14.452 21.8836 13.948H23.8576C23.6709 14.956 23.1996 15.7447 22.4436 16.314C21.6969 16.8833 20.7356 17.168 19.5596 17.168ZM25.8639 17L29.5599 8.726H24.7299V7.2H31.4079V8.474L27.7259 17H25.8639Z" fill="black"/>
</g>
<defs>
<filter id="filter0_dd_1577_18611" x="0" y="0" width="46" height="44" filterUnits="userSpaceOnUse" color-interpolation-filters="sRGB">
<feFlood flood-opacity="0" result="BackgroundImageFix"/>
<feColorMatrix in="SourceAlpha" type="matrix" values="0 0 0 0 0 0 0 0 0 0 0 0 0 0 0 0 0 0 127 0" result="hardAlpha"/>
<feMorphology radius="4" operator="erode" in="SourceAlpha" result="effect1_dropShadow_1577_18611"/>
<feOffset dy="4"/>
<feGaussianBlur stdDeviation="3"/>
<feComposite in2="hardAlpha" operator="out"/>
<feColorMatrix type="matrix" values="0 0 0 0 0 0 0 0 0 0 0 0 0 0 0 0 0 0 0.1 0"/>
<feBlend mode="normal" in2="BackgroundImageFix" result="effect1_dropShadow_1577_18611"/>
<feColorMatrix in="SourceAlpha" type="matrix" values="0 0 0 0 0 0 0 0 0 0 0 0 0 0 0 0 0 0 127 0" result="hardAlpha"/>
<feMorphology radius="3" operator="erode" in="SourceAlpha" result="effect2_dropShadow_1577_18611"/>
<feOffset dy="10"/>
<feGaussianBlur stdDeviation="7.5"/>
<feComposite in2="hardAlpha" operator="out"/>
<feColorMatrix type="matrix" values="0 0 0 0 0 0 0 0 0 0 0 0 0 0 0 0 0 0 0.1 0"/>
<feBlend mode="normal" in2="effect1_dropShadow_1577_18611" result="effect2_dropShadow_1577_18611"/>
<feBlend mode="normal" in="SourceGraphic" in2="effect2_dropShadow_1577_18611" result="shape"/>
</filter>
</defs>
</svg>
