<svg width="48" height="44" viewBox="0 0 48 44" fill="none" xmlns="http://www.w3.org/2000/svg">
<g filter="url(#filter0_dd_1577_18599)">
<rect x="12" y="2" width="24" height="20" rx="4" fill="#72C3D5" shape-rendering="crispEdges"/>
<path d="M19.8623 17.168C18.873 17.168 18.0237 16.958 17.3143 16.538C16.605 16.1087 16.059 15.516 15.6763 14.76C15.2937 13.9947 15.1023 13.1127 15.1023 12.114C15.1023 11.1153 15.2937 10.2333 15.6763 9.468C16.059 8.70267 16.605 8.10533 17.3143 7.676C18.0237 7.24667 18.873 7.032 19.8623 7.032C21.0383 7.032 21.9997 7.326 22.7463 7.914C23.5023 8.49267 23.9737 9.30933 24.1603 10.364H22.1863C22.065 9.832 21.8037 9.41667 21.4023 9.118C21.0103 8.81 20.4877 8.656 19.8343 8.656C18.929 8.656 18.2197 8.964 17.7063 9.58C17.193 10.196 16.9363 11.0407 16.9363 12.114C16.9363 13.1873 17.193 14.032 17.7063 14.648C18.2197 15.2547 18.929 15.558 19.8343 15.558C20.4877 15.558 21.0103 15.418 21.4023 15.138C21.8037 14.8487 22.065 14.452 22.1863 13.948H24.1603C23.9737 14.956 23.5023 15.7447 22.7463 16.314C21.9997 16.8833 21.0383 17.168 19.8623 17.168ZM29.2886 17.168C28.5513 17.168 27.9306 17.0327 27.4266 16.762C26.9226 16.4913 26.5166 16.1273 26.2086 15.67C25.9006 15.2127 25.6766 14.704 25.5366 14.144C25.4059 13.584 25.3406 13.01 25.3406 12.422C25.3406 11.33 25.4946 10.3827 25.8026 9.58C26.1106 8.768 26.5539 8.14267 27.1326 7.704C27.7113 7.256 28.4113 7.032 29.2326 7.032C29.9046 7.032 30.4739 7.16733 30.9406 7.438C31.4166 7.69933 31.7853 8.04467 32.0466 8.474C32.3079 8.90333 32.4619 9.36533 32.5086 9.86H30.8426C30.7586 9.43067 30.5766 9.09933 30.2966 8.866C30.0166 8.63267 29.6573 8.516 29.2186 8.516C28.5933 8.516 28.0893 8.80533 27.7066 9.384C27.3239 9.95333 27.1186 10.826 27.0906 12.002C27.3146 11.6193 27.6506 11.302 28.0986 11.05C28.5466 10.798 29.0459 10.672 29.5966 10.672C30.1379 10.672 30.6466 10.8027 31.1226 11.064C31.5986 11.3253 31.9813 11.694 32.2706 12.17C32.5693 12.646 32.7186 13.206 32.7186 13.85C32.7186 14.438 32.5739 14.984 32.2846 15.488C32.0046 15.992 31.6033 16.398 31.0806 16.706C30.5673 17.014 29.9699 17.168 29.2886 17.168ZM29.1906 15.628C29.7133 15.628 30.1426 15.4693 30.4786 15.152C30.8239 14.8253 30.9966 14.4147 30.9966 13.92C30.9966 13.3973 30.8239 12.9773 30.4786 12.66C30.1333 12.3427 29.6946 12.184 29.1626 12.184C28.8173 12.184 28.5046 12.2633 28.2246 12.422C27.9539 12.5713 27.7393 12.7767 27.5806 13.038C27.4219 13.29 27.3426 13.5747 27.3426 13.892C27.3426 14.396 27.5153 14.8113 27.8606 15.138C28.2153 15.4647 28.6586 15.628 29.1906 15.628Z" fill="black"/>
</g>
<defs>
<filter id="filter0_dd_1577_18599" x="0" y="0" width="48" height="44" filterUnits="userSpaceOnUse" color-interpolation-filters="sRGB">
<feFlood flood-opacity="0" result="BackgroundImageFix"/>
<feColorMatrix in="SourceAlpha" type="matrix" values="0 0 0 0 0 0 0 0 0 0 0 0 0 0 0 0 0 0 127 0" result="hardAlpha"/>
<feMorphology radius="4" operator="erode" in="SourceAlpha" result="effect1_dropShadow_1577_18599"/>
<feOffset dy="4"/>
<feGaussianBlur stdDeviation="3"/>
<feComposite in2="hardAlpha" operator="out"/>
<feColorMatrix type="matrix" values="0 0 0 0 0 0 0 0 0 0 0 0 0 0 0 0 0 0 0.1 0"/>
<feBlend mode="normal" in2="BackgroundImageFix" result="effect1_dropShadow_1577_18599"/>
<feColorMatrix in="SourceAlpha" type="matrix" values="0 0 0 0 0 0 0 0 0 0 0 0 0 0 0 0 0 0 127 0" result="hardAlpha"/>
<feMorphology radius="3" operator="erode" in="SourceAlpha" result="effect2_dropShadow_1577_18599"/>
<feOffset dy="10"/>
<feGaussianBlur stdDeviation="7.5"/>
<feComposite in2="hardAlpha" operator="out"/>
<feColorMatrix type="matrix" values="0 0 0 0 0 0 0 0 0 0 0 0 0 0 0 0 0 0 0.1 0"/>
<feBlend mode="normal" in2="effect1_dropShadow_1577_18599" result="effect2_dropShadow_1577_18599"/>
<feBlend mode="normal" in="SourceGraphic" in2="effect2_dropShadow_1577_18599" result="shape"/>
</filter>
</defs>
</svg>
