<svg width="23" height="20" viewBox="12 2 23 20" fill="none" xmlns="http://www.w3.org/2000/svg">
<g filter="url(#filter0_dd_1577_18258)">
<rect x="12" y="2" width="23" height="20" rx="4" fill="#FBCC43" shape-rendering="crispEdges"/>
<path d="M19.6289 17.168C18.6396 17.168 17.7903 16.958 17.0809 16.538C16.3716 16.1087 15.8256 15.516 15.4429 14.76C15.0603 13.9947 14.8689 13.1127 14.8689 12.114C14.8689 11.1153 15.0603 10.2333 15.4429 9.468C15.8256 8.70267 16.3716 8.10533 17.0809 7.676C17.7903 7.24667 18.6396 7.032 19.6289 7.032C20.8049 7.032 21.7663 7.326 22.5129 7.914C23.2689 8.49267 23.7403 9.30933 23.9269 10.364H21.9529C21.8316 9.832 21.5703 9.41667 21.1689 9.118C20.7769 8.81 20.2543 8.656 19.6009 8.656C18.6956 8.656 17.9863 8.964 17.4729 9.58C16.9596 10.196 16.7029 11.0407 16.7029 12.114C16.7029 13.1873 16.9596 14.032 17.4729 14.648C17.9863 15.2547 18.6956 15.558 19.6009 15.558C20.2543 15.558 20.7769 15.418 21.1689 15.138C21.5703 14.8487 21.8316 14.452 21.9529 13.948H23.9269C23.7403 14.956 23.2689 15.7447 22.5129 16.314C21.7663 16.8833 20.8049 17.168 19.6289 17.168ZM28.5792 17.168C27.9352 17.168 27.3519 17.056 26.8292 16.832C26.3065 16.5987 25.8865 16.244 25.5692 15.768C25.2519 15.292 25.0839 14.6947 25.0652 13.976H26.8292C26.8385 14.452 26.9925 14.8533 27.2912 15.18C27.5992 15.4973 28.0285 15.656 28.5792 15.656C29.1019 15.656 29.5032 15.5113 29.7832 15.222C30.0632 14.9327 30.2032 14.5687 30.2032 14.13C30.2032 13.6167 30.0165 13.2293 29.6432 12.968C29.2792 12.6973 28.8079 12.562 28.2292 12.562H27.5012V11.092H28.2432C28.7192 11.092 29.1159 10.98 29.4332 10.756C29.7505 10.532 29.9092 10.2007 29.9092 9.762C29.9092 9.398 29.7879 9.10867 29.5452 8.894C29.3119 8.67 28.9852 8.558 28.5652 8.558C28.1079 8.558 27.7485 8.69333 27.4872 8.964C27.2352 9.23467 27.0952 9.566 27.0672 9.958H25.3172C25.3545 9.05267 25.6672 8.33867 26.2552 7.816C26.8525 7.29333 27.6225 7.032 28.5652 7.032C29.2372 7.032 29.8019 7.15333 30.2592 7.396C30.7259 7.62933 31.0759 7.942 31.3092 8.334C31.5519 8.726 31.6732 9.16 31.6732 9.636C31.6732 10.1867 31.5192 10.6533 31.2112 11.036C30.9125 11.4093 30.5392 11.6613 30.0912 11.792C30.6419 11.904 31.0899 12.1747 31.4352 12.604C31.7805 13.024 31.9532 13.556 31.9532 14.2C31.9532 14.7413 31.8225 15.236 31.5612 15.684C31.2999 16.132 30.9172 16.4913 30.4132 16.762C29.9185 17.0327 29.3072 17.168 28.5792 17.168Z" fill="black"/>
</g>
<defs>
<filter id="filter0_dd_1577_18258" x="0" y="0" width="47" height="44" filterUnits="userSpaceOnUse" color-interpolation-filters="sRGB">
<feFlood flood-opacity="0" result="BackgroundImageFix"/>
<feColorMatrix in="SourceAlpha" type="matrix" values="0 0 0 0 0 0 0 0 0 0 0 0 0 0 0 0 0 0 127 0" result="hardAlpha"/>
<feMorphology radius="4" operator="erode" in="SourceAlpha" result="effect1_dropShadow_1577_18258"/>
<feOffset dy="4"/>
<feGaussianBlur stdDeviation="3"/>
<feComposite in2="hardAlpha" operator="out"/>
<feColorMatrix type="matrix" values="0 0 0 0 0 0 0 0 0 0 0 0 0 0 0 0 0 0 0.1 0"/>
<feBlend mode="normal" in2="BackgroundImageFix" result="effect1_dropShadow_1577_18258"/>
<feColorMatrix in="SourceAlpha" type="matrix" values="0 0 0 0 0 0 0 0 0 0 0 0 0 0 0 0 0 0 127 0" result="hardAlpha"/>
<feMorphology radius="3" operator="erode" in="SourceAlpha" result="effect2_dropShadow_1577_18258"/>
<feOffset dy="10"/>
<feGaussianBlur stdDeviation="7.5"/>
<feComposite in2="hardAlpha" operator="out"/>
<feColorMatrix type="matrix" values="0 0 0 0 0 0 0 0 0 0 0 0 0 0 0 0 0 0 0.1 0"/>
<feBlend mode="normal" in2="effect1_dropShadow_1577_18258" result="effect2_dropShadow_1577_18258"/>
<feBlend mode="normal" in="SourceGraphic" in2="effect2_dropShadow_1577_18258" result="shape"/>
</filter>
</defs>
</svg>
