<svg width="48" height="44" viewBox="0 0 48 44" fill="none" xmlns="http://www.w3.org/2000/svg">
<g filter="url(#filter0_dd_1577_18256)">
<rect x="12" y="2" width="24" height="20" rx="4" fill="#682D7E" shape-rendering="crispEdges"/>
<path d="M19.8145 17.168C18.8252 17.168 17.9758 16.958 17.2665 16.538C16.5572 16.1087 16.0112 15.516 15.6285 14.76C15.2458 13.9947 15.0545 13.1127 15.0545 12.114C15.0545 11.1153 15.2458 10.2333 15.6285 9.468C16.0112 8.70267 16.5572 8.10533 17.2665 7.676C17.9758 7.24667 18.8252 7.032 19.8145 7.032C20.9905 7.032 21.9518 7.326 22.6985 7.914C23.4545 8.49267 23.9258 9.30933 24.1125 10.364H22.1385C22.0172 9.832 21.7558 9.41667 21.3545 9.118C20.9625 8.81 20.4398 8.656 19.7865 8.656C18.8812 8.656 18.1718 8.964 17.6585 9.58C17.1452 10.196 16.8885 11.0407 16.8885 12.114C16.8885 13.1873 17.1452 14.032 17.6585 14.648C18.1718 15.2547 18.8812 15.558 19.7865 15.558C20.4398 15.558 20.9625 15.418 21.3545 15.138C21.7558 14.8487 22.0172 14.452 22.1385 13.948H24.1125C23.9258 14.956 23.4545 15.7447 22.6985 16.314C21.9518 16.8833 20.9905 17.168 19.8145 17.168ZM30.0388 17V15.18H25.2088V13.752L29.8008 7.2H31.8308V13.626H33.1188V15.18H31.8308V17H30.0388ZM27.1268 13.626H30.1508V9.174L27.1268 13.626Z" fill="white"/>
</g>
<defs>
<filter id="filter0_dd_1577_18256" x="0" y="0" width="48" height="44" filterUnits="userSpaceOnUse" color-interpolation-filters="sRGB">
<feFlood flood-opacity="0" result="BackgroundImageFix"/>
<feColorMatrix in="SourceAlpha" type="matrix" values="0 0 0 0 0 0 0 0 0 0 0 0 0 0 0 0 0 0 127 0" result="hardAlpha"/>
<feMorphology radius="4" operator="erode" in="SourceAlpha" result="effect1_dropShadow_1577_18256"/>
<feOffset dy="4"/>
<feGaussianBlur stdDeviation="3"/>
<feComposite in2="hardAlpha" operator="out"/>
<feColorMatrix type="matrix" values="0 0 0 0 0 0 0 0 0 0 0 0 0 0 0 0 0 0 0.1 0"/>
<feBlend mode="normal" in2="BackgroundImageFix" result="effect1_dropShadow_1577_18256"/>
<feColorMatrix in="SourceAlpha" type="matrix" values="0 0 0 0 0 0 0 0 0 0 0 0 0 0 0 0 0 0 127 0" result="hardAlpha"/>
<feMorphology radius="3" operator="erode" in="SourceAlpha" result="effect2_dropShadow_1577_18256"/>
<feOffset dy="10"/>
<feGaussianBlur stdDeviation="7.5"/>
<feComposite in2="hardAlpha" operator="out"/>
<feColorMatrix type="matrix" values="0 0 0 0 0 0 0 0 0 0 0 0 0 0 0 0 0 0 0.1 0"/>
<feBlend mode="normal" in2="effect1_dropShadow_1577_18256" result="effect2_dropShadow_1577_18256"/>
<feBlend mode="normal" in="SourceGraphic" in2="effect2_dropShadow_1577_18256" result="shape"/>
</filter>
</defs>
</svg>
