<svg width="47" height="44" viewBox="0 0 47 44" fill="none" xmlns="http://www.w3.org/2000/svg">
<g filter="url(#filter0_dd_1577_18255)">
<rect x="12" y="2" width="23" height="20" rx="4" fill="#EB9633" shape-rendering="crispEdges"/>
<path d="M19.458 17.168C18.4687 17.168 17.6194 16.958 16.91 16.538C16.2007 16.1087 15.6547 15.516 15.272 14.76C14.8894 13.9947 14.698 13.1127 14.698 12.114C14.698 11.1153 14.8894 10.2333 15.272 9.468C15.6547 8.70267 16.2007 8.10533 16.91 7.676C17.6194 7.24667 18.4687 7.032 19.458 7.032C20.634 7.032 21.5954 7.326 22.342 7.914C23.098 8.49267 23.5694 9.30933 23.756 10.364H21.782C21.6607 9.832 21.3994 9.41667 20.998 9.118C20.606 8.81 20.0834 8.656 19.43 8.656C18.5247 8.656 17.8154 8.964 17.302 9.58C16.7887 10.196 16.532 11.0407 16.532 12.114C16.532 13.1873 16.7887 14.032 17.302 14.648C17.8154 15.2547 18.5247 15.558 19.43 15.558C20.0834 15.558 20.606 15.418 20.998 15.138C21.3994 14.8487 21.6607 14.452 21.782 13.948H23.756C23.5694 14.956 23.098 15.7447 22.342 16.314C21.5954 16.8833 20.634 17.168 19.458 17.168ZM28.7163 17.168C27.9976 17.168 27.377 17.042 26.8543 16.79C26.341 16.538 25.935 16.1927 25.6363 15.754C25.347 15.306 25.179 14.802 25.1323 14.242H26.8823C26.9663 14.6433 27.1716 14.9793 27.4983 15.25C27.825 15.5113 28.231 15.642 28.7163 15.642C29.239 15.642 29.6636 15.4507 29.9903 15.068C30.3263 14.6853 30.4943 14.2093 30.4943 13.64C30.4943 13.052 30.3263 12.5853 29.9903 12.24C29.6636 11.8947 29.2483 11.722 28.7443 11.722C28.3243 11.722 27.9603 11.8247 27.6523 12.03C27.3443 12.2353 27.125 12.492 26.9943 12.8H25.2723L26.1123 7.2H31.5443V8.768H27.4563L27.0083 11.036C27.2136 10.812 27.4936 10.63 27.8483 10.49C28.203 10.3407 28.5996 10.266 29.0383 10.266C29.7383 10.266 30.3216 10.4247 30.7883 10.742C31.255 11.05 31.6096 11.4607 31.8523 11.974C32.095 12.478 32.2163 13.0287 32.2163 13.626C32.2163 14.3073 32.067 14.914 31.7683 15.446C31.479 15.978 31.0683 16.398 30.5363 16.706C30.0136 17.014 29.407 17.168 28.7163 17.168Z" fill="black"/>
</g>
<defs>
<filter id="filter0_dd_1577_18255" x="0" y="0" width="47" height="44" filterUnits="userSpaceOnUse" color-interpolation-filters="sRGB">
<feFlood flood-opacity="0" result="BackgroundImageFix"/>
<feColorMatrix in="SourceAlpha" type="matrix" values="0 0 0 0 0 0 0 0 0 0 0 0 0 0 0 0 0 0 127 0" result="hardAlpha"/>
<feMorphology radius="4" operator="erode" in="SourceAlpha" result="effect1_dropShadow_1577_18255"/>
<feOffset dy="4"/>
<feGaussianBlur stdDeviation="3"/>
<feComposite in2="hardAlpha" operator="out"/>
<feColorMatrix type="matrix" values="0 0 0 0 0 0 0 0 0 0 0 0 0 0 0 0 0 0 0.1 0"/>
<feBlend mode="normal" in2="BackgroundImageFix" result="effect1_dropShadow_1577_18255"/>
<feColorMatrix in="SourceAlpha" type="matrix" values="0 0 0 0 0 0 0 0 0 0 0 0 0 0 0 0 0 0 127 0" result="hardAlpha"/>
<feMorphology radius="3" operator="erode" in="SourceAlpha" result="effect2_dropShadow_1577_18255"/>
<feOffset dy="10"/>
<feGaussianBlur stdDeviation="7.5"/>
<feComposite in2="hardAlpha" operator="out"/>
<feColorMatrix type="matrix" values="0 0 0 0 0 0 0 0 0 0 0 0 0 0 0 0 0 0 0.1 0"/>
<feBlend mode="normal" in2="effect1_dropShadow_1577_18255" result="effect2_dropShadow_1577_18255"/>
<feBlend mode="normal" in="SourceGraphic" in2="effect2_dropShadow_1577_18255" result="shape"/>
</filter>
</defs>
</svg>
