<svg width="20" height="20" viewBox="12 2 20 20" fill="none" xmlns="http://www.w3.org/2000/svg">
<g filter="url(#filter0_dd_1577_18260)">
<rect x="12" y="2" width="20" height="20" rx="4" fill="#9DBE42" shape-rendering="crispEdges"/>
<path d="M19.8858 17.168C18.8964 17.168 18.0471 16.958 17.3378 16.538C16.6284 16.1087 16.0824 15.516 15.6998 14.76C15.3171 13.9947 15.1258 13.1127 15.1258 12.114C15.1258 11.1153 15.3171 10.2333 15.6998 9.468C16.0824 8.70267 16.6284 8.10533 17.3378 7.676C18.0471 7.24667 18.8964 7.032 19.8858 7.032C21.0618 7.032 22.0231 7.326 22.7698 7.914C23.5258 8.49267 23.9971 9.30933 24.1838 10.364H22.2098C22.0884 9.832 21.8271 9.41667 21.4258 9.118C21.0338 8.81 20.5111 8.656 19.8578 8.656C18.9524 8.656 18.2431 8.964 17.7298 9.58C17.2164 10.196 16.9598 11.0407 16.9598 12.114C16.9598 13.1873 17.2164 14.032 17.7298 14.648C18.2431 15.2547 18.9524 15.558 19.8578 15.558C20.5111 15.558 21.0338 15.418 21.4258 15.138C21.8271 14.8487 22.0884 14.452 22.2098 13.948H24.1838C23.9971 14.956 23.5258 15.7447 22.7698 16.314C22.0231 16.8833 21.0618 17.168 19.8858 17.168ZM26.694 17V9.244L25.084 9.622V8.25L27.45 7.2H28.556V17H26.694Z" fill="black"/>
</g>
<defs>
<filter id="filter0_dd_1577_18260" x="0" y="0" width="44" height="44" filterUnits="userSpaceOnUse" color-interpolation-filters="sRGB">
<feFlood flood-opacity="0" result="BackgroundImageFix"/>
<feColorMatrix in="SourceAlpha" type="matrix" values="0 0 0 0 0 0 0 0 0 0 0 0 0 0 0 0 0 0 127 0" result="hardAlpha"/>
<feMorphology radius="4" operator="erode" in="SourceAlpha" result="effect1_dropShadow_1577_18260"/>
<feOffset dy="4"/>
<feGaussianBlur stdDeviation="3"/>
<feComposite in2="hardAlpha" operator="out"/>
<feColorMatrix type="matrix" values="0 0 0 0 0 0 0 0 0 0 0 0 0 0 0 0 0 0 0.1 0"/>
<feBlend mode="normal" in2="BackgroundImageFix" result="effect1_dropShadow_1577_18260"/>
<feColorMatrix in="SourceAlpha" type="matrix" values="0 0 0 0 0 0 0 0 0 0 0 0 0 0 0 0 0 0 127 0" result="hardAlpha"/>
<feMorphology radius="3" operator="erode" in="SourceAlpha" result="effect2_dropShadow_1577_18260"/>
<feOffset dy="10"/>
<feGaussianBlur stdDeviation="7.5"/>
<feComposite in2="hardAlpha" operator="out"/>
<feColorMatrix type="matrix" values="0 0 0 0 0 0 0 0 0 0 0 0 0 0 0 0 0 0 0.1 0"/>
<feBlend mode="normal" in2="effect1_dropShadow_1577_18260" result="effect2_dropShadow_1577_18260"/>
<feBlend mode="normal" in="SourceGraphic" in2="effect2_dropShadow_1577_18260" result="shape"/>
</filter>
</defs>
</svg>
