<svg width="20" height="20" viewBox="0 0 20 20" fill="none" xmlns="http://www.w3.org/2000/svg">
<path d="M13.2 15.9H13.7V15.4V13.8V13.3H13.2H11.5V7.8V7.3H11H7.8H7.3V7.8V9.4V9.9H7.8H8.9V13.3H7.2H6.7V13.8V15.4V15.9H7.2H13.2ZM11 3.90335L10.7222 4.31909L11 3.90335C10.704 3.70557 10.356 3.6 10 3.6C9.52261 3.6 9.06477 3.78964 8.72721 4.12721C8.38964 4.46477 8.2 4.92261 8.2 5.4C8.2 5.75601 8.30557 6.10402 8.50335 6.40003C8.70114 6.69603 8.98226 6.92675 9.31117 7.06298C9.64008 7.19922 10.002 7.23487 10.3512 7.16541C10.7003 7.09596 11.0211 6.92453 11.2728 6.67279C11.5245 6.42106 11.696 6.10033 11.7654 5.75116C11.8349 5.402 11.7992 5.04008 11.663 4.71117C11.5267 4.38226 11.296 4.10114 11 3.90335ZM0.5 10C0.5 4.76214 4.76214 0.5 10 0.5C15.2379 0.5 19.5 4.76214 19.5 10C19.5 15.2379 15.2379 19.5 10 19.5C4.76214 19.5 0.5 15.2379 0.5 10Z" fill="black" stroke="black"/>
</svg>
