<svg width="24" height="24" viewBox="0 0 24 24" fill="none" xmlns="http://www.w3.org/2000/svg">
<g clip-path="url(#clip0_1577_18257)">
<path d="M11.9998 23.2049C18.1881 23.2049 23.2046 18.1883 23.2046 12C23.2046 5.81175 18.1881 0.795166 11.9998 0.795166C5.81151 0.795166 0.794922 5.81175 0.794922 12C0.794922 18.1883 5.81151 23.2049 11.9998 23.2049Z" fill="white" stroke="#1CA85A" stroke-width="1.59028"/>
<path d="M17.3328 13.1251C17.3328 14.7428 16.9097 15.9701 16.0635 16.8068C15.2172 17.5878 14.1897 17.9733 12.9808 17.9783C11.741 17.9837 10.6481 17.6434 9.98877 16.7461V17.8109H7.94287V5.17676H9.98877V9.35615C10.7609 8.6247 11.8958 8.19281 12.9808 8.18825C14.0658 8.18346 15.2172 8.60663 16.0635 9.44338C16.9097 10.2801 17.3328 11.5074 17.3328 13.1251ZM15.169 13.1251C15.1755 12.3484 14.8972 11.4613 14.4436 10.8474C13.9901 10.2335 13.3113 9.93281 12.6181 9.92697C11.9249 9.92098 11.2281 10.2335 10.7141 10.8474C10.2001 11.4613 9.98877 12.0652 9.98877 13.1251C9.98877 14.185 10.1996 14.6894 10.7141 15.276C11.2286 15.8625 11.8021 16.1127 12.6181 16.1127C13.4341 16.1127 13.9903 15.8617 14.4436 15.276C14.897 14.6902 15.1624 13.9018 15.169 13.1251Z" fill="#1CA85A"/>
</g>
<defs>
<clipPath id="clip0_1577_18257">
<rect width="24" height="24" fill="white"/>
</clipPath>
</defs>
</svg>
