<svg width="24" height="24" viewBox="0 0 24 24" fill="none" xmlns="http://www.w3.org/2000/svg">
<g clip-path="url(#clip0_1577_18254)">
<mask id="mask0_1577_18254" style="mask-type:luminance" maskUnits="userSpaceOnUse" x="0" y="0" width="24" height="24">
<path d="M0 24H24V9.53674e-06H0V24Z" fill="white"/>
</mask>
<g mask="url(#mask0_1577_18254)">
<path d="M12.0072 0.808529C18.1844 0.808529 23.1803 5.81427 23.1803 12.0112C23.1803 18.1834 18.1844 23.1941 12.0072 23.1941C5.8202 23.1941 0.814453 18.1834 0.814453 12.0112C0.814453 5.81427 5.8202 0.808529 12.0072 0.808529Z" fill="white"/>
<path d="M12.0053 0.809024C18.183 0.809024 23.1823 5.81525 23.1823 12.0102C23.1823 18.1844 18.183 23.1941 12.0053 23.1941C5.82069 23.1941 0.814453 18.1844 0.814453 12.0102C0.814453 5.81525 5.82069 0.809024 12.0053 0.809024Z" stroke="#DB2B1C" stroke-width="1.64348"/>
<path d="M13.3524 12.3996C12.176 12.3996 9.57221 12.498 9.57221 14.1814C9.57221 15.0969 10.5468 15.5349 11.3885 15.5349C12.8897 15.5349 14.2925 14.7425 14.2925 13.2117V12.3996H13.3524ZM14.2925 16.2732H14.2433C13.4016 17.6022 11.8708 18.1338 10.3154 18.1338C7.99223 18.1338 5.90527 16.8048 5.90527 14.3093C5.90527 10.0271 11.1079 9.94839 14.2925 9.94839C14.2925 8.59482 13.1702 7.73346 11.8413 7.73346C10.596 7.73346 9.5476 8.29458 8.73546 9.21008L6.6928 7.1182C8.09559 5.79417 10.1383 5.12969 12.1465 5.12969C16.6157 5.12969 17.8118 7.40368 17.8118 11.5284V17.8286H14.2925V16.2732Z" fill="#DB2B1C"/>
</g>
</g>
<defs>
<clipPath id="clip0_1577_18254">
<rect width="24" height="24" fill="white"/>
</clipPath>
</defs>
</svg>
