<svg width="16" height="16" viewBox="0 0 16 16" fill="none" xmlns="http://www.w3.org/2000/svg">
<path d="M5.71429 6.85721C7.13445 6.85721 8.28571 5.70594 8.28571 4.28578C8.28571 2.86562 7.13445 1.71436 5.71429 1.71436C4.29412 1.71436 3.14286 2.86562 3.14286 4.28578C3.14286 5.70594 4.29412 6.85721 5.71429 6.85721Z" stroke="#000001" stroke-linecap="round" stroke-linejoin="round"/>
<path d="M10.8571 15.4285H0.571429V14.2857C0.571429 12.9217 1.11326 11.6136 2.07774 10.6491C3.04221 9.68466 4.35031 9.14282 5.71429 9.14282C7.07826 9.14282 8.38636 9.68466 9.35083 10.6491C10.3153 11.6136 10.8571 12.9217 10.8571 14.2857V15.4285Z" stroke="#000001" stroke-linecap="round" stroke-linejoin="round"/>
<path d="M10.2857 1.71436C10.9677 1.71436 11.6218 1.98527 12.104 2.46751C12.5862 2.94975 12.8571 3.6038 12.8571 4.28578C12.8571 4.96777 12.5862 5.62182 12.104 6.10406C11.6218 6.58629 10.9677 6.85721 10.2857 6.85721" stroke="#000001" stroke-linecap="round" stroke-linejoin="round"/>
<path d="M12.1143 9.36011C13.0878 9.73045 13.9259 10.3877 14.5178 11.2448C15.1096 12.1019 15.4272 13.1185 15.4286 14.1601V15.4287H13.7143" stroke="#000001" stroke-linecap="round" stroke-linejoin="round"/>
</svg>
